<svg width="22" height="18" viewBox="0 0 22 18" fill="none" xmlns="http://www.w3.org/2000/svg">
<path d="M16.5 0.5C14.55 0.5 12.45 0.9 11 2C9.55 0.9 7.45 0.5 5.5 0.5C4.05 0.5 2.51 0.72 1.22 1.29C0.49 1.62 0 2.33 0 3.14V14.42C0 15.72 1.22 16.68 2.48 16.36C3.46 16.11 4.5 16 5.5 16C7.06 16 8.72 16.26 10.06 16.92C10.66 17.22 11.34 17.22 11.93 16.92C13.27 16.25 14.93 16 16.49 16C17.49 16 18.53 16.11 19.51 16.36C20.77 16.69 21.99 15.73 21.99 14.42V3.14C21.99 2.33 21.5 1.62 20.77 1.29C19.49 0.72 17.95 0.5 16.5 0.5ZM20 13.23C20 13.86 19.42 14.32 18.8 14.21C18.05 14.07 17.27 14.01 16.5 14.01C14.8 14.01 12.35 14.66 11 15.51V4C12.35 3.15 14.8 2.5 16.5 2.5C17.42 2.5 18.33 2.59 19.2 2.78C19.66 2.88 20 3.29 20 3.76V13.23Z" fill="url(#paint0_linear_15_51)"/>
<path d="M12.98 7.00998C12.66 7.00998 12.37 6.80998 12.27 6.48998C12.14 6.09998 12.36 5.66998 12.75 5.54998C14.29 5.04998 16.28 4.88998 18.11 5.09998C18.52 5.14998 18.82 5.51998 18.77 5.92998C18.72 6.33998 18.35 6.63998 17.94 6.58998C16.32 6.39998 14.55 6.54998 13.21 6.97998C13.13 6.98998 13.05 7.00998 12.98 7.00998Z" fill="url(#paint1_linear_15_51)"/>
<path d="M12.98 9.67001C12.66 9.67001 12.37 9.47001 12.27 9.15001C12.14 8.76001 12.36 8.33001 12.75 8.21001C14.28 7.71001 16.28 7.55001 18.11 7.76001C18.52 7.81001 18.82 8.18001 18.77 8.59001C18.72 9.00001 18.35 9.30001 17.94 9.25001C16.32 9.06001 14.55 9.21001 13.21 9.64001C13.13 9.66001 13.05 9.67001 12.98 9.67001Z" fill="url(#paint2_linear_15_51)"/>
<path d="M12.98 12.33C12.66 12.33 12.37 12.13 12.27 11.81C12.14 11.42 12.36 10.99 12.75 10.87C14.28 10.37 16.28 10.21 18.11 10.42C18.52 10.47 18.82 10.84 18.77 11.25C18.72 11.66 18.35 11.95 17.94 11.91C16.32 11.72 14.55 11.87 13.21 12.3C13.13 12.32 13.05 12.33 12.98 12.33Z" fill="url(#paint3_linear_15_51)"/>
<defs>
<linearGradient id="paint0_linear_15_51" x1="10.995" y1="0.5" x2="10.995" y2="17.145" gradientUnits="userSpaceOnUse">
<stop stop-color="#FF2A55"/>
<stop offset="1" stop-color="#A60011"/>
</linearGradient>
<linearGradient id="paint1_linear_15_51" x1="15.504" y1="5.00989" x2="15.504" y2="7.00998" gradientUnits="userSpaceOnUse">
<stop stop-color="#FF2A55"/>
<stop offset="1" stop-color="#A60011"/>
</linearGradient>
<linearGradient id="paint2_linear_15_51" x1="15.504" y1="7.66992" x2="15.504" y2="9.67001" gradientUnits="userSpaceOnUse">
<stop stop-color="#FF2A55"/>
<stop offset="1" stop-color="#A60011"/>
</linearGradient>
<linearGradient id="paint3_linear_15_51" x1="15.504" y1="10.33" x2="15.504" y2="12.33" gradientUnits="userSpaceOnUse">
<stop stop-color="#FF2A55"/>
<stop offset="1" stop-color="#A60011"/>
</linearGradient>
</defs>
</svg>
